# File created by Blade
# Date/Time:  Thu Sep 25 19:32:06 2014
# Frame Rate: 120.000 fps
#------------------------------------------------------
:FULLY-SPECIFIED
:DEGREES
2911
root -2.712137 33.073780 -2.161544 -4.419281 -16.392665 15.811975
Spine 10.390972 27.955243 -1.346543
Head -13.180795 -16.914689 -10.903723
LeftShoulder -17.693078 20.390397 14.526031
LeftArm 18.947204 -23.599934 -39.722706
LeftForeArm 7.527644 -0.000000 16.186617
LeftHand -28.148944 -0.000000 0.897402
LeftHandThumb1 -26.253704 0.000000 33.147579
RightShoulder -5.402107 20.195243 -21.548713
RightArm 4.498766 -23.168943 76.227574
RightForeArm 18.725903 -0.000000 50.871786
RightHand 3.773748 -0.000000 23.298252
RightHandThumb1 -24.326973 -0.000000 -32.862282
LeftUpLeg -102.526039 -20.470454 -11.796028
LeftLeg 112.622299 -0.000000 -0.000000
LeftFoot 13.019286 6.930419 -19.389805
LeftToeBase 10.001879 -0.000000 -0.000000
RightUpLeg -10.181899 4.637847 -11.426228
RightLeg 28.639707 -0.000000 -0.000000
RightFoot -17.276986 -9.691269 -5.713325
RightToeBase -5.550656 -0.000000 0.000000
2912
root -2.719982 33.070646 -2.162996 -4.305908 -16.220306 15.823268
Spine 10.106800 27.959065 -1.624052
Head -13.060855 -17.294993 -10.699291
LeftShoulder -17.679174 20.357313 14.616337
LeftArm 19.201607 -23.416916 -39.633078
LeftForeArm 7.469766 -0.000000 16.239688
LeftHand -28.200870 -0.000000 1.089119
LeftHandThumb1 -26.253704 0.000000 33.147579
RightShoulder -5.446095 20.045335 -21.622731
RightArm 4.188474 -23.089104 76.447319
RightForeArm 18.469335 0.000000 51.199455
RightHand 3.769007 0.000000 23.009946
RightHandThumb1 -24.326973 -0.000000 -32.862282
LeftUpLeg -102.651713 -20.724126 -11.823558
LeftLeg 112.728377 -0.000000 -0.000000
LeftFoot 13.215514 6.980208 -19.519670
LeftToeBase 10.341708 -0.000000 -0.000000
RightUpLeg -10.217605 4.730799 -11.394031
RightLeg 28.608201 -0.000000 -0.000000
RightFoot -17.298966 -10.128303 -5.946040
RightToeBase -5.431324 -0.000000 0.000000
2913
root -2.731529 33.068033 -2.168049 -4.179836 -16.041362 15.807837
Spine 9.821401 27.963585 -1.887251
Head -12.939301 -17.664932 -10.486401
LeftShoulder -17.650650 20.305761 14.708452
LeftArm 19.463355 -23.399710 -39.622597
LeftForeArm 7.704659 -0.000000 16.328240
LeftHand -28.238185 0.000000 1.133333
LeftHandThumb1 -26.253704 0.000000 33.147579
RightShoulder -5.532260 19.917936 -21.634585
RightArm 3.901108 -23.215673 76.534950
RightForeArm 18.637982 -0.000000 51.561679
RightHand 3.697978 -0.000000 22.555363
RightHandThumb1 -24.326973 -0.000000 -32.862282
LeftUpLeg -102.768583 -20.959917 -11.837782
LeftLeg 112.826194 -0.000000 -0.000000
LeftFoot 13.486938 6.950777 -19.366711
LeftToeBase 10.439162 -0.000000 -0.000000
RightUpLeg -10.242986 4.911093 -11.319759
RightLeg 28.543525 -0.000000 -0.000000
RightFoot -17.314357 -10.660696 -6.202390
RightToeBase -5.149897 -0.000000 0.000000
2914
root -2.743848 33.065051 -2.172089 -4.047714 -15.849970 15.786036
Spine 9.512007 27.917163 -2.166072
Head -12.803067 -18.004705 -10.293685
LeftShoulder -17.650148 20.287758 14.776534
LeftArm 19.744810 -23.376227 -39.580715
LeftForeArm 7.727112 -0.000000 16.357824
LeftHand -28.134408 -0.000000 1.015078
LeftHandThumb1 -26.253704 0.000000 33.147579
RightShoulder -5.582643 19.809377 -21.670339
RightArm 3.619137 -23.120655 76.787710
RightForeArm 18.580419 -0.000000 51.768924
RightHand 3.632981 -0.000000 22.367688
RightHandThumb1 -24.326973 -0.000000 -32.862282
LeftUpLeg -102.873688 -21.193009 -11.884901
LeftLeg 112.913383 -0.000000 -0.000000
LeftFoot 13.737851 7.003579 -19.391349
LeftToeBase 10.540514 -0.000000 -0.000000
RightUpLeg -10.258165 5.090536 -11.240008
RightLeg 28.459549 -0.000000 -0.000000
RightFoot -17.298779 -11.219471 -6.544640
RightToeBase -4.951336 -0.000000 0.000000
2915
root -2.759724 33.061267 -2.174537 -3.933988 -15.640126 15.744691
Spine 9.225817 27.840294 -2.422929
Head -12.668578 -18.314724 -10.125081
LeftShoulder -17.612739 20.195675 14.896676
LeftArm 19.929013 -23.331614 -39.574817
LeftForeArm 7.872110 -0.000000 16.487253
LeftHand -28.298569 -0.000000 0.955297
LeftHandThumb1 -26.253704 0.000000 33.147579
RightShoulder -5.596055 19.747654 -21.693238
RightArm 3.287480 -22.906231 77.099167
RightForeArm 18.485263 0.000000 51.943008
RightHand 3.541392 -0.000000 22.331335
RightHandThumb1 -24.326973 -0.000000 -32.862282
LeftUpLeg -102.956855 -21.429364 -11.924774
LeftLeg 113.011413 -0.000000 -0.000000
LeftFoot 14.034920 6.994711 -19.239415
LeftToeBase 10.516183 -0.000000 -0.000000
RightUpLeg -10.244462 5.218363 -11.139674
RightLeg 28.378254 -0.000000 -0.000000
RightFoot -17.299440 -11.707357 -6.790985
RightToeBase -4.764901 -0.000000 0.000000
2916
root -2.776071 33.058267 -2.177152 -3.822361 -15.431537 15.708334
Spine 8.948370 27.760729 -2.678781
Head -12.510455 -18.615705 -9.951521
LeftShoulder -17.550650 20.086342 14.988416
LeftArm 20.094708 -23.190037 -39.480109
LeftForeArm 7.889000 0.000000 16.494628
LeftHand -28.163611 -0.000000 0.893333
LeftHandThumb1 -26.253704 0.000000 33.147579
RightShoulder -5.631137 19.677030 -21.690565
RightArm 2.987952 -22.826606 77.325863
RightForeArm 18.504953 -0.000000 52.171454
RightHand 3.475835 0.000000 22.038451
RightHandThumb1 -24.326973 -0.000000 -32.862282
LeftUpLeg -103.036392 -21.656168 -11.969961
LeftLeg 113.103566 -0.000000 -0.000000
LeftFoot 14.320162 6.973478 -19.212598
LeftToeBase 10.634437 -0.000000 -0.000000
RightUpLeg -10.240409 5.374319 -11.046018
RightLeg 28.315094 -0.000000 -0.000000
RightFoot -17.257169 -12.189640 -7.031594
RightToeBase -4.740979 -0.000000 0.000000
